<svg xmlns="http://www.w3.org/2000/svg" width="1600" height="560" viewBox="0 0 1600 560" role="img" aria-labelledby="title desc">
  <title id="title">AI Agent Map stylized signpost banner</title>
  <desc id="desc">An original illustration of a cool traveler at a crossroads facing a stylized multi-angle signpost of AI agents, with roads leading toward several mainstream destinations.</desc>
  <defs>
    <linearGradient id="sky" x1="0" y1="0" x2="0" y2="1">
      <stop offset="0%" stop-color="#dff2ff" />
      <stop offset="62%" stop-color="#eef8ff" />
      <stop offset="100%" stop-color="#fff5de" />
    </linearGradient>
    <linearGradient id="land" x1="0" y1="0" x2="0" y2="1">
      <stop offset="0%" stop-color="#dff0c9" />
      <stop offset="100%" stop-color="#bdd99a" />
    </linearGradient>
    <linearGradient id="card" x1="0" y1="0" x2="1" y2="1">
      <stop offset="0%" stop-color="#ffffff" stop-opacity="0.97" />
      <stop offset="100%" stop-color="#f5fbff" stop-opacity="0.93" />
    </linearGradient>
    <linearGradient id="pole" x1="0" y1="0" x2="1" y2="1">
      <stop offset="0%" stop-color="#132735" />
      <stop offset="28%" stop-color="#355366" />
      <stop offset="52%" stop-color="#8de8ff" />
      <stop offset="74%" stop-color="#2a475a" />
      <stop offset="100%" stop-color="#10222f" />
    </linearGradient>
    <linearGradient id="poleCircuit" x1="0" y1="0" x2="0" y2="1">
      <stop offset="0%" stop-color="#b7f5ff" stop-opacity="0.96" />
      <stop offset="100%" stop-color="#52d3ff" stop-opacity="0.18" />
    </linearGradient>
    <radialGradient id="nodeGlow" cx="50%" cy="50%" r="50%">
      <stop offset="0%" stop-color="#f9feff" stop-opacity="1" />
      <stop offset="45%" stop-color="#7de8ff" stop-opacity="0.9" />
      <stop offset="100%" stop-color="#7de8ff" stop-opacity="0" />
    </radialGradient>
    <linearGradient id="woodHoney" x1="0" y1="0" x2="1" y2="1">
      <stop offset="0%" stop-color="#e4c287" />
      <stop offset="100%" stop-color="#bb8a47" />
    </linearGradient>
    <linearGradient id="woodRose" x1="0" y1="0" x2="1" y2="1">
      <stop offset="0%" stop-color="#cf9f95" />
      <stop offset="100%" stop-color="#9c6a62" />
    </linearGradient>
    <linearGradient id="woodSky" x1="0" y1="0" x2="1" y2="1">
      <stop offset="0%" stop-color="#b9d1e8" />
      <stop offset="100%" stop-color="#84a5c4" />
    </linearGradient>
    <linearGradient id="woodOlive" x1="0" y1="0" x2="1" y2="1">
      <stop offset="0%" stop-color="#b8c99d" />
      <stop offset="100%" stop-color="#7f9668" />
    </linearGradient>
    <linearGradient id="woodCream" x1="0" y1="0" x2="1" y2="1">
      <stop offset="0%" stop-color="#f3dfab" />
      <stop offset="100%" stop-color="#c4a56b" />
    </linearGradient>
    <linearGradient id="woodPlum" x1="0" y1="0" x2="1" y2="1">
      <stop offset="0%" stop-color="#d0c0de" />
      <stop offset="100%" stop-color="#9a84ab" />
    </linearGradient>
    <filter id="shadow" x="-20%" y="-20%" width="140%" height="140%">
      <feDropShadow dx="0" dy="12" stdDeviation="12" flood-color="#385867" flood-opacity="0.16" />
    </filter>
    <style>
      .title { font: 700 40px ui-sans-serif, -apple-system, BlinkMacSystemFont, 'Segoe UI', sans-serif; fill: #163f58; }
      .subtitle { font: 500 16px ui-sans-serif, -apple-system, BlinkMacSystemFont, 'Segoe UI', sans-serif; fill: #335c73; }
      .plankLight { font: 700 18px ui-sans-serif, -apple-system, BlinkMacSystemFont, 'Segoe UI', sans-serif; fill: #f8f1e5; letter-spacing: 0.3px; }
      .plankDark { font: 700 18px ui-sans-serif, -apple-system, BlinkMacSystemFont, 'Segoe UI', sans-serif; fill: #183a4a; letter-spacing: 0.2px; }
      .marker { font: 700 18px ui-sans-serif, -apple-system, BlinkMacSystemFont, 'Segoe UI', sans-serif; fill: #1f4559; }
    </style>
  </defs>

  <rect width="1600" height="560" fill="url(#sky)" />
  <circle cx="1286" cy="106" r="92" fill="#ffd4a1" opacity="0.72" />

  <g opacity="0.72" fill="#ffffff">
    <ellipse cx="246" cy="118" rx="92" ry="30" />
    <ellipse cx="334" cy="122" rx="54" ry="20" />
    <ellipse cx="1096" cy="120" rx="104" ry="32" />
    <ellipse cx="1194" cy="116" rx="58" ry="18" />
  </g>

  <path d="M0 306 C148 252 322 248 482 280 C632 310 814 314 972 278 C1128 244 1324 248 1600 320 L1600 560 L0 560 Z" fill="url(#land)" />

  <g opacity="0.3" fill="#c6dfaa">
    <path d="M108 372 C212 338 320 334 398 360 C462 380 454 434 388 446 C262 472 132 440 100 400 C88 386 92 378 108 372 Z" />
    <path d="M1004 354 C1104 316 1236 318 1318 350 C1380 374 1392 426 1344 446 C1254 482 1088 476 1028 434 C982 402 964 370 1004 354 Z" />
    <path d="M580 430 C648 402 738 404 790 426 C844 448 824 488 752 496 C656 508 566 490 544 464 C532 448 544 444 580 430 Z" />
  </g>

  <g opacity="0.16" fill="none" stroke="#70905d" stroke-width="3">
    <path d="M84 286 C236 244 410 244 560 286" />
    <path d="M72 320 C252 270 448 272 612 320" />
    <path d="M930 292 C1090 248 1260 252 1472 314" />
    <path d="M968 338 C1104 304 1278 308 1448 354" />
    <path d="M516 446 C610 418 734 420 826 454" />
  </g>

  <g filter="url(#shadow)">
    <rect x="56" y="56" width="660" height="106" rx="26" fill="url(#card)" />
    <text x="96" y="110" class="title">AI Agent Map</text>
    <text x="96" y="142" class="subtitle">Routes across coding, cloud delegation, and open execution.</text>
  </g>

  <g fill="none" stroke="#607154" stroke-opacity="0.16" stroke-width="58" stroke-linecap="round" stroke-linejoin="round">
    <path d="M918 404 C822 352 688 298 516 242" />
    <path d="M918 404 C776 400 632 390 452 356" />
    <path d="M918 404 C1016 352 1144 290 1266 228" />
    <path d="M918 404 C1022 400 1146 388 1284 356" />
  </g>
  <g fill="none" stroke="#f9f2e6" stroke-width="38" stroke-linecap="round" stroke-linejoin="round">
    <path d="M918 404 C822 352 688 298 516 242" />
    <path d="M918 404 C776 400 632 390 452 356" />
    <path d="M918 404 C1016 352 1144 290 1266 228" />
    <path d="M918 404 C1022 400 1146 388 1284 356" />
  </g>
  <g fill="none" stroke="#d8bd7a" stroke-width="4" stroke-linecap="round" stroke-dasharray="10 18">
    <path d="M918 404 C822 352 688 298 516 242" />
    <path d="M918 404 C776 400 632 390 452 356" />
    <path d="M918 404 C1016 352 1144 290 1266 228" />
    <path d="M918 404 C1022 400 1146 388 1284 356" />
  </g>

  <g>
    <circle cx="918" cy="404" r="42" fill="#f9f4e8" stroke="#84a164" stroke-width="10" />
    <circle cx="918" cy="404" r="14" fill="#d8ebb8" stroke="#6f8858" stroke-width="5" />
  </g>

  <g filter="url(#shadow)">
    <g transform="translate(426 342)">
      <circle r="18" fill="#66b585" />
      <circle r="7" fill="#ffffff" />
      <rect x="24" y="-22" width="158" height="44" rx="18" fill="#fffef9" stroke="#45657b" stroke-width="4" />
      <text x="103" y="7" text-anchor="middle" class="marker">OpenClaw</text>
    </g>
    <g transform="translate(466 224)">
      <circle r="18" fill="#ffd16f" />
      <circle r="7" fill="#ffffff" />
      <rect x="24" y="-22" width="180" height="44" rx="18" fill="#fffef9" stroke="#45657b" stroke-width="4" />
      <text x="114" y="7" text-anchor="middle" class="marker">Claude Code</text>
    </g>
    <g transform="translate(1238 214)">
      <circle r="18" fill="#ffb59d" />
      <circle r="7" fill="#ffffff" />
      <rect x="24" y="-22" width="124" height="44" rx="18" fill="#fffef9" stroke="#45657b" stroke-width="4" />
      <text x="86" y="7" text-anchor="middle" class="marker">Codex</text>
    </g>
    <g transform="translate(1258 346)">
      <circle r="18" fill="#8dc7ff" />
      <circle r="7" fill="#ffffff" />
      <rect x="24" y="-22" width="132" height="44" rx="18" fill="#fffef9" stroke="#45657b" stroke-width="4" />
      <text x="90" y="7" text-anchor="middle" class="marker">Copilot</text>
    </g>
  </g>

  <g filter="url(#shadow)">
    <path d="M941 104 L960 76 L979 104 L973 112 H947 Z" fill="#143448" stroke="#74d9f8" stroke-opacity="0.7" stroke-width="3" />
    <path d="M960 48 L960 76" fill="none" stroke="#86eaff" stroke-width="4" stroke-linecap="round" />
    <path d="M944 62 Q960 48 976 62" fill="none" stroke="#86eaff" stroke-opacity="0.62" stroke-width="3" stroke-linecap="round" />
    <circle cx="960" cy="42" r="9" fill="url(#nodeGlow)" />
    <rect x="944" y="110" width="32" height="324" rx="14" fill="url(#pole)" stroke="#46657a" stroke-width="3" />
    <rect x="952" y="120" width="16" height="304" rx="8" fill="url(#poleCircuit)" opacity="0.9" />
    <path d="M960 128 V420" fill="none" stroke="#c2f8ff" stroke-opacity="0.54" stroke-width="2.6" stroke-linecap="round" />
    <path d="M952 158 H968 M952 236 H968 M952 314 H968 M952 392 H968" fill="none" stroke="#b0f3ff" stroke-opacity="0.7" stroke-width="3" stroke-linecap="round" />
    <path d="M952 158 H936 V176 H948" fill="none" stroke="#86eaff" stroke-opacity="0.58" stroke-width="2.4" stroke-linecap="round" stroke-linejoin="round" />
    <path d="M968 236 H984 V252 H972" fill="none" stroke="#86eaff" stroke-opacity="0.58" stroke-width="2.4" stroke-linecap="round" stroke-linejoin="round" />
    <path d="M952 314 H936 V332 H948" fill="none" stroke="#86eaff" stroke-opacity="0.58" stroke-width="2.4" stroke-linecap="round" stroke-linejoin="round" />
    <path d="M968 392 H984 V410 H972" fill="none" stroke="#86eaff" stroke-opacity="0.58" stroke-width="2.4" stroke-linecap="round" stroke-linejoin="round" />
    <circle cx="960" cy="158" r="10" fill="url(#nodeGlow)" />
    <circle cx="960" cy="236" r="10" fill="url(#nodeGlow)" />
    <circle cx="960" cy="314" r="10" fill="url(#nodeGlow)" />
    <circle cx="960" cy="392" r="10" fill="url(#nodeGlow)" />
    <rect x="938" y="434" width="44" height="18" rx="8" fill="#b7c8d8" stroke="#587488" stroke-width="3" />

    <g transform="translate(960 156) rotate(-9)">
      <path d="M-12 -21 H180 L224 0 L180 21 H-12 Z" fill="url(#woodHoney)" stroke="#5f3f2e" stroke-width="4" />
      <path d="M14 -8 C58 -14 112 -13 170 -8" fill="none" stroke="#f4d6ae" stroke-opacity="0.24" stroke-width="3" stroke-linecap="round" />
      <path d="M18 7 C72 2 126 3 184 9" fill="none" stroke="#f7e4bf" stroke-opacity="0.2" stroke-width="3" stroke-linecap="round" />
      <circle cx="2" cy="0" r="5" fill="#523628" />
      <text x="110" y="7" text-anchor="middle" class="plankDark">Claude Code</text>
    </g>

    <g transform="translate(958 202) rotate(7)">
      <path d="M12 -21 H-174 L-216 0 L-174 21 H12 Z" fill="url(#woodRose)" stroke="#5f3f2e" stroke-width="4" />
      <path d="M-18 -7 C-68 -13 -118 -12 -172 -8" fill="none" stroke="#f2cfc8" stroke-opacity="0.26" stroke-width="3" stroke-linecap="round" />
      <path d="M-18 7 C-78 4 -128 4 -184 10" fill="none" stroke="#f7dfda" stroke-opacity="0.2" stroke-width="3" stroke-linecap="round" />
      <circle cx="-2" cy="0" r="5" fill="#523628" />
      <text x="-106" y="7" text-anchor="middle" class="plankLight">Codex</text>
    </g>

    <g transform="translate(960 248) rotate(2)">
      <path d="M-12 -21 H172 L214 0 L172 21 H-12 Z" fill="url(#woodSky)" stroke="#5f3f2e" stroke-width="4" />
      <path d="M16 -8 C58 -13 106 -12 164 -8" fill="none" stroke="#d7e8f5" stroke-opacity="0.3" stroke-width="3" stroke-linecap="round" />
      <path d="M14 7 C72 2 124 3 176 9" fill="none" stroke="#ecf4fb" stroke-opacity="0.22" stroke-width="3" stroke-linecap="round" />
      <circle cx="2" cy="0" r="5" fill="#523628" />
      <text x="102" y="7" text-anchor="middle" class="plankDark">Copilot</text>
    </g>

    <g transform="translate(958 292) rotate(-8)">
      <path d="M12 -21 H-178 L-220 0 L-178 21 H12 Z" fill="url(#woodOlive)" stroke="#5f3f2e" stroke-width="4" />
      <path d="M-16 -8 C-68 -13 -122 -12 -172 -8" fill="none" stroke="#d9e7c9" stroke-opacity="0.28" stroke-width="3" stroke-linecap="round" />
      <path d="M-18 8 C-82 3 -136 4 -186 10" fill="none" stroke="#eaf1de" stroke-opacity="0.2" stroke-width="3" stroke-linecap="round" />
      <circle cx="-2" cy="0" r="5" fill="#523628" />
      <text x="-104" y="7" text-anchor="middle" class="plankDark">LangGraph</text>
    </g>

    <g transform="translate(960 338) rotate(6)">
      <path d="M-12 -21 H186 L226 0 L186 21 H-12 Z" fill="url(#woodCream)" stroke="#5f3f2e" stroke-width="4" />
      <path d="M18 -8 C64 -13 118 -12 176 -8" fill="none" stroke="#fff0cf" stroke-opacity="0.3" stroke-width="3" stroke-linecap="round" />
      <path d="M18 8 C76 3 134 4 190 10" fill="none" stroke="#fff6df" stroke-opacity="0.22" stroke-width="3" stroke-linecap="round" />
      <circle cx="2" cy="0" r="5" fill="#523628" />
      <text x="116" y="7" text-anchor="middle" class="plankDark">OpenClaw</text>
    </g>

    <g transform="translate(958 384) rotate(-5)">
      <path d="M12 -21 H-194 L-240 0 L-194 21 H12 Z" fill="url(#woodPlum)" stroke="#5f3f2e" stroke-width="4" />
      <path d="M-16 -8 C-76 -13 -130 -12 -190 -8" fill="none" stroke="#e7def0" stroke-opacity="0.28" stroke-width="3" stroke-linecap="round" />
      <path d="M-18 8 C-92 3 -146 4 -206 10" fill="none" stroke="#f2ebf7" stroke-opacity="0.22" stroke-width="3" stroke-linecap="round" />
      <circle cx="-2" cy="0" r="5" fill="#523628" />
      <text x="-116" y="7" text-anchor="middle" class="plankDark">Hermes Agent</text>
    </g>
  </g>

  <g transform="translate(628 356)" filter="url(#shadow)">
    <ellipse cx="0" cy="160" rx="36" ry="10" fill="#2d4b5e" opacity="0.18" />
    <path d="M-26 62 Q-44 86 -40 122 L-20 124 L-12 68 Z" fill="#c58429" opacity="0.96" />
    <path d="M-22 66 Q-12 56 2 60" fill="none" stroke="#e0a23c" stroke-width="5" stroke-linecap="round" opacity="0.9" />
    <circle cx="6" cy="26" r="15" fill="#efbd96" />
    <rect x="-1" y="39" width="10" height="10" rx="4" fill="#efbd96" />
    <path d="M-12 20 Q2 2 24 16 L24 28 Q10 34 -10 28 Z" fill="#0f2533" />
    <path d="M20 18 Q30 20 36 14" fill="none" stroke="#0f2533" stroke-width="4" stroke-linecap="round" />
    <rect x="-1" y="24" width="10" height="3.5" rx="1.5" fill="#123447" />
    <rect x="11" y="24" width="10" height="3.5" rx="1.5" fill="#123447" />
    <rect x="9" y="25" width="2.5" height="1.5" rx="0.75" fill="#7ce8ff" opacity="0.85" />
    <path d="M-26 84 Q2 50 36 80 L32 126 Q10 138 -24 130 Z" fill="#16384b" />
    <path d="M-10 82 Q0 92 14 92 Q28 92 38 80" fill="none" stroke="#62ddff" stroke-width="5" stroke-linecap="round" />
    <path d="M-18 86 L12 94 L8 130 L-20 126 Z" fill="#1d4a60" opacity="0.95" />
    <path d="M20 86 Q40 98 52 88" fill="none" stroke="#16384b" stroke-width="9" stroke-linecap="round" />
    <path d="M-20 90 Q-30 108 -28 128" fill="none" stroke="#16384b" stroke-width="9" stroke-linecap="round" />
    <path d="M6 48 Q16 58 24 76" fill="none" stroke="#1c4e66" stroke-width="4" stroke-linecap="round" opacity="0.85" />
    <path d="M-2 132 L-8 160" fill="none" stroke="#1d3446" stroke-width="12" stroke-linecap="round" />
    <path d="M22 130 L28 158" fill="none" stroke="#1d3446" stroke-width="12" stroke-linecap="round" />
    <ellipse cx="-10" cy="164" rx="13" ry="5" fill="#1d3446" transform="rotate(-8 -10 164)" />
    <ellipse cx="32" cy="162" rx="13" ry="5" fill="#1d3446" transform="rotate(8 32 162)" />
  </g>
</svg>