<svg xmlns="http://www.w3.org/2000/svg" width="920" height="322" viewBox="0 0 920 322" font-family="system-ui, -apple-system, sans-serif">
<rect width="920" height="322" rx="10" fill="#fcfcfb" stroke="rgba(11,11,11,0.10)"/>
<text x="46" y="26" font-size="16" font-weight="700" fill="#0b0b0b">Who holds the weekly top 10 — seats by layer</text>
<text x="46" y="44" font-size="11" fill="#52514e">Last updated 2026-09-01 · one bar per weekly window · amber = the skills wave</text>
<line x1="46" y1="266.0" x2="670" y2="266.0" stroke="#e1e0d9" stroke-width="1"/>
<text x="38" y="269.5" font-size="10" fill="#52514e" text-anchor="end">0</text>
<line x1="46" y1="226.0" x2="670" y2="226.0" stroke="#e1e0d9" stroke-width="1"/>
<text x="38" y="229.5" font-size="10" fill="#52514e" text-anchor="end">2</text>
<line x1="46" y1="186.0" x2="670" y2="186.0" stroke="#e1e0d9" stroke-width="1"/>
<text x="38" y="189.5" font-size="10" fill="#52514e" text-anchor="end">4</text>
<line x1="46" y1="146.0" x2="670" y2="146.0" stroke="#e1e0d9" stroke-width="1"/>
<text x="38" y="149.5" font-size="10" fill="#52514e" text-anchor="end">6</text>
<line x1="46" y1="106.0" x2="670" y2="106.0" stroke="#e1e0d9" stroke-width="1"/>
<text x="38" y="109.5" font-size="10" fill="#52514e" text-anchor="end">8</text>
<line x1="46" y1="66.0" x2="670" y2="66.0" stroke="#e1e0d9" stroke-width="1"/>
<text x="38" y="69.5" font-size="10" fill="#52514e" text-anchor="end">10</text>
<rect x="46.0" y="206.0" width="23.4" height="60.0" fill="#2a78d6" rx="1.5"/>
<rect x="46.0" y="166.0" width="23.4" height="40.0" fill="#898781" rx="1.5"/>
<text x="57.7" y="282" font-size="9.5" fill="#52514e" text-anchor="middle">04-11</text>
<rect x="79.4" y="206.0" width="23.4" height="60.0" fill="#2a78d6" rx="1.5"/>
<rect x="79.4" y="166.0" width="23.4" height="40.0" fill="#898781" rx="1.5"/>
<text x="91.1" y="282" font-size="9.5" fill="#52514e" text-anchor="middle">04-23</text>
<rect x="112.7" y="186.0" width="23.4" height="80.0" fill="#2a78d6" rx="1.5"/>
<rect x="112.7" y="146.0" width="23.4" height="40.0" fill="#898781" rx="1.5"/>
<text x="124.4" y="282" font-size="9.5" fill="#52514e" text-anchor="middle">04-26</text>
<rect x="146.1" y="166.0" width="23.4" height="100.0" fill="#2a78d6" rx="1.5"/>
<rect x="146.1" y="126.0" width="23.4" height="40.0" fill="#898781" rx="1.5"/>
<text x="157.8" y="282" font-size="9.5" fill="#52514e" text-anchor="middle">05-02</text>
<rect x="179.5" y="126.0" width="23.4" height="140.0" fill="#2a78d6" rx="1.5"/>
<rect x="179.5" y="106.0" width="23.4" height="20.0" fill="#898781" rx="1.5"/>
<text x="191.2" y="282" font-size="9.5" fill="#52514e" text-anchor="middle">05-08</text>
<rect x="212.8" y="226.0" width="23.4" height="40.0" fill="#2a78d6" rx="1.5"/>
<rect x="212.8" y="186.0" width="23.4" height="40.0" fill="#898781" rx="1.5"/>
<rect x="212.8" y="66.0" width="23.4" height="120.0" fill="#eda100" rx="1.5"/>
<text x="224.5" y="282" font-size="9.5" fill="#52514e" text-anchor="middle">05-23</text>
<rect x="246.2" y="186.0" width="23.4" height="80.0" fill="#2a78d6" rx="1.5"/>
<rect x="246.2" y="146.0" width="23.4" height="40.0" fill="#898781" rx="1.5"/>
<rect x="246.2" y="66.0" width="23.4" height="80.0" fill="#eda100" rx="1.5"/>
<text x="257.9" y="282" font-size="9.5" fill="#52514e" text-anchor="middle">06-02</text>
<rect x="279.6" y="186.0" width="23.4" height="80.0" fill="#2a78d6" rx="1.5"/>
<rect x="279.6" y="166.0" width="23.4" height="20.0" fill="#898781" rx="1.5"/>
<rect x="279.6" y="66.0" width="23.4" height="100.0" fill="#eda100" rx="1.5"/>
<text x="291.3" y="282" font-size="9.5" fill="#52514e" text-anchor="middle">06-11</text>
<rect x="312.9" y="186.0" width="23.4" height="80.0" fill="#2a78d6" rx="1.5"/>
<rect x="312.9" y="166.0" width="23.4" height="20.0" fill="#898781" rx="1.5"/>
<rect x="312.9" y="66.0" width="23.4" height="100.0" fill="#eda100" rx="1.5"/>
<text x="324.6" y="282" font-size="9.5" fill="#52514e" text-anchor="middle">06-17</text>
<rect x="346.3" y="186.0" width="23.4" height="80.0" fill="#2a78d6" rx="1.5"/>
<rect x="346.3" y="166.0" width="23.4" height="20.0" fill="#898781" rx="1.5"/>
<rect x="346.3" y="66.0" width="23.4" height="100.0" fill="#eda100" rx="1.5"/>
<text x="358.0" y="282" font-size="9.5" fill="#52514e" text-anchor="middle">06-24</text>
<rect x="379.7" y="186.0" width="23.4" height="80.0" fill="#2a78d6" rx="1.5"/>
<rect x="379.7" y="166.0" width="23.4" height="20.0" fill="#898781" rx="1.5"/>
<rect x="379.7" y="66.0" width="23.4" height="100.0" fill="#eda100" rx="1.5"/>
<text x="391.4" y="282" font-size="9.5" fill="#52514e" text-anchor="middle">07-02</text>
<rect x="413.1" y="186.0" width="23.4" height="80.0" fill="#2a78d6" rx="1.5"/>
<rect x="413.1" y="166.0" width="23.4" height="20.0" fill="#898781" rx="1.5"/>
<rect x="413.1" y="66.0" width="23.4" height="100.0" fill="#eda100" rx="1.5"/>
<text x="424.7" y="282" font-size="9.5" fill="#52514e" text-anchor="middle">07-08</text>
<rect x="446.4" y="186.0" width="23.4" height="80.0" fill="#2a78d6" rx="1.5"/>
<rect x="446.4" y="166.0" width="23.4" height="20.0" fill="#898781" rx="1.5"/>
<rect x="446.4" y="66.0" width="23.4" height="100.0" fill="#eda100" rx="1.5"/>
<text x="458.1" y="282" font-size="9.5" fill="#52514e" text-anchor="middle">07-14</text>
<rect x="479.8" y="166.0" width="23.4" height="100.0" fill="#2a78d6" rx="1.5"/>
<rect x="479.8" y="146.0" width="23.4" height="20.0" fill="#898781" rx="1.5"/>
<rect x="479.8" y="66.0" width="23.4" height="80.0" fill="#eda100" rx="1.5"/>
<text x="491.5" y="282" font-size="9.5" fill="#52514e" text-anchor="middle">07-22</text>
<rect x="513.2" y="166.0" width="23.4" height="100.0" fill="#2a78d6" rx="1.5"/>
<rect x="513.2" y="126.0" width="23.4" height="40.0" fill="#898781" rx="1.5"/>
<rect x="513.2" y="66.0" width="23.4" height="60.0" fill="#eda100" rx="1.5"/>
<text x="524.8" y="282" font-size="9.5" fill="#52514e" text-anchor="middle">07-29</text>
<rect x="546.5" y="186.0" width="23.4" height="80.0" fill="#2a78d6" rx="1.5"/>
<rect x="546.5" y="146.0" width="23.4" height="40.0" fill="#898781" rx="1.5"/>
<rect x="546.5" y="66.0" width="23.4" height="80.0" fill="#eda100" rx="1.5"/>
<text x="558.2" y="282" font-size="9.5" fill="#52514e" text-anchor="middle">08-05</text>
<rect x="579.9" y="166.0" width="23.4" height="100.0" fill="#2a78d6" rx="1.5"/>
<rect x="579.9" y="146.0" width="23.4" height="20.0" fill="#898781" rx="1.5"/>
<rect x="579.9" y="66.0" width="23.4" height="80.0" fill="#eda100" rx="1.5"/>
<text x="591.6" y="282" font-size="9.5" fill="#52514e" text-anchor="middle">08-12</text>
<rect x="613.3" y="186.0" width="23.4" height="80.0" fill="#2a78d6" rx="1.5"/>
<rect x="613.3" y="146.0" width="23.4" height="40.0" fill="#898781" rx="1.5"/>
<rect x="613.3" y="66.0" width="23.4" height="80.0" fill="#eda100" rx="1.5"/>
<text x="624.9" y="282" font-size="9.5" fill="#52514e" text-anchor="middle">08-27</text>
<rect x="646.6" y="166.0" width="23.4" height="100.0" fill="#2a78d6" rx="1.5"/>
<rect x="646.6" y="66.0" width="23.4" height="100.0" fill="#eda100" rx="1.5"/>
<text x="658.3" y="282" font-size="9.5" fill="#52514e" text-anchor="middle">09-01</text>
<rect x="694" y="65" width="12" height="12" rx="2" fill="#eda100"/>
<text x="712" y="75.5" font-size="11.5" fill="#0b0b0b">skill</text>
<rect x="694" y="87" width="12" height="12" rx="2" fill="#898781"/>
<text x="712" y="97.5" font-size="11.5" fill="#0b0b0b">infra</text>
<rect x="694" y="109" width="12" height="12" rx="2" fill="#2a78d6"/>
<text x="712" y="119.5" font-size="11.5" fill="#0b0b0b">agent</text>
<text x="694" y="150" font-size="10.5" fill="#52514e">latest window:</text>
<text x="694" y="166" font-size="10.5" font-weight="600" fill="#0b0b0b">skill 5 · agent 5 · infra 0</text>
<text x="46" y="308" font-size="10" fill="#52514e">Table depth grew over time: top 5–8 before 2026-05-23, top 10 since — shorter early bars reflect that, not fewer projects.</text>
</svg>
