<svg xmlns="http://www.w3.org/2000/svg" width="1094" height="534" viewBox="0 0 1094 534" font-family="system-ui, -apple-system, sans-serif"><rect x="0.5" y="0.5" width="1093" height="533" fill="#fcfcfb" stroke="rgba(11,11,11,0.10)" rx="6"/><text x="40" y="24" font-size="15" font-weight="600" fill="#0b0b0b">每周热度 Top 10 —— 按 7 天 star 增量排名</text><text x="40" y="42" font-size="12" fill="#52514e">最后更新 2026-07-14 · 窗口 2026-07-08 → 2026-07-14</text><line x1="40" y1="74.0" x2="904" y2="74.0" stroke="#e1e0d9" stroke-width="1"/><text x="32" y="78.0" font-size="11" fill="#52514e" text-anchor="end">#1</text><line x1="40" y1="110.0" x2="904" y2="110.0" stroke="#e1e0d9" stroke-width="1"/><text x="32" y="114.0" font-size="11" fill="#52514e" text-anchor="end">#2</text><line x1="40" y1="146.0" x2="904" y2="146.0" stroke="#e1e0d9" stroke-width="1"/><text x="32" y="150.0" font-size="11" fill="#52514e" text-anchor="end">#3</text><line x1="40" y1="182.0" x2="904" y2="182.0" stroke="#e1e0d9" stroke-width="1"/><text x="32" y="186.0" font-size="11" fill="#52514e" text-anchor="end">#4</text><line x1="40" y1="218.0" x2="904" y2="218.0" stroke="#e1e0d9" stroke-width="1"/><text x="32" y="222.0" font-size="11" fill="#52514e" text-anchor="end">#5</text><line x1="40" y1="254.0" x2="904" y2="254.0" stroke="#e1e0d9" stroke-width="1"/><text x="32" y="258.0" font-size="11" fill="#52514e" text-anchor="end">#6</text><line x1="40" y1="290.0" x2="904" y2="290.0" stroke="#e1e0d9" stroke-width="1"/><text x="32" y="294.0" font-size="11" fill="#52514e" text-anchor="end">#7</text><line x1="40" y1="326.0" x2="904" y2="326.0" stroke="#e1e0d9" stroke-width="1"/><text x="32" y="330.0" font-size="11" fill="#52514e" text-anchor="end">#8</text><line x1="40" y1="362.0" x2="904" y2="362.0" stroke="#e1e0d9" stroke-width="1"/><text x="32" y="366.0" font-size="11" fill="#52514e" text-anchor="end">#9</text><line x1="40" y1="398.0" x2="904" y2="398.0" stroke="#e1e0d9" stroke-width="1"/><text x="32" y="402.0" font-size="11" fill="#52514e" text-anchor="end">#10</text><text x="40" y="434" font-size="11" fill="#52514e" text-anchor="middle">2026-04-11</text><text x="112" y="434" font-size="11" fill="#52514e" text-anchor="middle">04-23</text><text x="184" y="434" font-size="11" fill="#52514e" text-anchor="middle">04-26</text><text x="256" y="434" font-size="11" fill="#52514e" text-anchor="middle">05-02</text><text x="328" y="434" font-size="11" fill="#52514e" text-anchor="middle">05-08</text><text x="400" y="434" font-size="11" fill="#52514e" text-anchor="middle">05-23</text><text x="472" y="434" font-size="11" fill="#52514e" text-anchor="middle">06-02</text><text x="544" y="434" font-size="11" fill="#52514e" text-anchor="middle">06-11</text><text x="616" y="434" font-size="11" fill="#52514e" text-anchor="middle">06-17</text><text x="688" y="434" font-size="11" fill="#52514e" text-anchor="middle">06-24</text><text x="760" y="434" font-size="11" fill="#52514e" text-anchor="middle">07-02</text><text x="832" y="434" font-size="11" fill="#52514e" text-anchor="middle">07-08</text><text x="904" y="434" font-size="11" fill="#52514e" text-anchor="middle">07-14</text><polyline points="40,182.0 112,218.0 184,218.0 256,290.0" fill="none" stroke="#898781" stroke-width="2" stroke-linecap="round" stroke-linejoin="round"/><circle cx="40" cy="182.0" r="4" fill="#898781" stroke="#fcfcfb" stroke-width="2"/><circle cx="112" cy="218.0" r="4" fill="#898781" stroke="#fcfcfb" stroke-width="2"/><circle cx="184" cy="218.0" r="4" fill="#898781" stroke="#fcfcfb" stroke-width="2"/><circle cx="256" cy="290.0" r="4" fill="#898781" stroke="#fcfcfb" stroke-width="2"/><polyline points="40,74.0 112,74.0 184,74.0 256,74.0 328,110.0 400,218.0 472,146.0 544,74.0 616,218.0 688,146.0 760,146.0 832,182.0 904,182.0" fill="none" stroke="#008300" stroke-width="2" stroke-linecap="round" stroke-linejoin="round"/><circle cx="40" cy="74.0" r="4" fill="#008300" stroke="#fcfcfb" stroke-width="2"/><circle cx="112" cy="74.0" r="4" fill="#008300" stroke="#fcfcfb" stroke-width="2"/><circle cx="184" cy="74.0" r="4" fill="#008300" stroke="#fcfcfb" stroke-width="2"/><circle cx="256" cy="74.0" r="4" fill="#008300" stroke="#fcfcfb" stroke-width="2"/><circle cx="328" cy="110.0" r="4" fill="#008300" stroke="#fcfcfb" stroke-width="2"/><circle cx="400" cy="218.0" r="4" fill="#008300" stroke="#fcfcfb" stroke-width="2"/><circle cx="472" cy="146.0" r="4" fill="#008300" stroke="#fcfcfb" stroke-width="2"/><circle cx="544" cy="74.0" r="4" fill="#008300" stroke="#fcfcfb" stroke-width="2"/><circle cx="616" cy="218.0" r="4" fill="#008300" stroke="#fcfcfb" stroke-width="2"/><circle cx="688" cy="146.0" r="4" fill="#008300" stroke="#fcfcfb" stroke-width="2"/><circle cx="760" cy="146.0" r="4" fill="#008300" stroke="#fcfcfb" stroke-width="2"/><circle cx="832" cy="182.0" r="4" fill="#008300" stroke="#fcfcfb" stroke-width="2"/><circle cx="904" cy="182.0" r="4" fill="#008300" stroke="#fcfcfb" stroke-width="2"/><polyline points="40,110.0 112,110.0 184,110.0 256,146.0 328,254.0" fill="none" stroke="#b8b6ae" stroke-width="2" stroke-linecap="round" stroke-linejoin="round"/><circle cx="40" cy="110.0" r="4" fill="#b8b6ae" stroke="#fcfcfb" stroke-width="2"/><circle cx="112" cy="110.0" r="4" fill="#b8b6ae" stroke="#fcfcfb" stroke-width="2"/><circle cx="184" cy="110.0" r="4" fill="#b8b6ae" stroke="#fcfcfb" stroke-width="2"/><circle cx="256" cy="146.0" r="4" fill="#b8b6ae" stroke="#fcfcfb" stroke-width="2"/><circle cx="328" cy="254.0" r="4" fill="#b8b6ae" stroke="#fcfcfb" stroke-width="2"/><polyline points="40,218.0 112,182.0 184,182.0 256,218.0 328,326.0" fill="none" stroke="#898781" stroke-width="2" stroke-linecap="round" stroke-linejoin="round"/><circle cx="40" cy="218.0" r="4" fill="#898781" stroke="#fcfcfb" stroke-width="2"/><circle cx="112" cy="182.0" r="4" fill="#898781" stroke="#fcfcfb" stroke-width="2"/><circle cx="184" cy="182.0" r="4" fill="#898781" stroke="#fcfcfb" stroke-width="2"/><circle cx="256" cy="218.0" r="4" fill="#898781" stroke="#fcfcfb" stroke-width="2"/><circle cx="328" cy="326.0" r="4" fill="#898781" stroke="#fcfcfb" stroke-width="2"/><polyline points="40,146.0 112,146.0 184,146.0 256,182.0" fill="none" stroke="#b8b6ae" stroke-width="2" stroke-linecap="round" stroke-linejoin="round"/><circle cx="40" cy="146.0" r="4" fill="#b8b6ae" stroke="#fcfcfb" stroke-width="2"/><circle cx="112" cy="146.0" r="4" fill="#b8b6ae" stroke="#fcfcfb" stroke-width="2"/><circle cx="184" cy="146.0" r="4" fill="#b8b6ae" stroke="#fcfcfb" stroke-width="2"/><circle cx="256" cy="182.0" r="4" fill="#b8b6ae" stroke="#fcfcfb" stroke-width="2"/><polyline points="184,254.0 256,254.0" fill="none" stroke="#898781" stroke-width="2" stroke-linecap="round" stroke-linejoin="round"/><circle cx="184" cy="254.0" r="4" fill="#898781" stroke="#fcfcfb" stroke-width="2"/><circle cx="256" cy="254.0" r="4" fill="#898781" stroke="#fcfcfb" stroke-width="2"/><polyline points="256,110.0 328,218.0" fill="none" stroke="#eb6834" stroke-width="2" stroke-linecap="round" stroke-linejoin="round"/><circle cx="256" cy="110.0" r="4" fill="#eb6834" stroke="#fcfcfb" stroke-width="2"/><circle cx="328" cy="218.0" r="4" fill="#eb6834" stroke="#fcfcfb" stroke-width="2"/><circle cx="544" cy="398.0" r="4" fill="#eb6834" stroke="#fcfcfb" stroke-width="2"/><polyline points="688,362.0 760,398.0 832,362.0 904,290.0" fill="none" stroke="#eb6834" stroke-width="2" stroke-linecap="round" stroke-linejoin="round"/><circle cx="688" cy="362.0" r="4" fill="#eb6834" stroke="#fcfcfb" stroke-width="2"/><circle cx="760" cy="398.0" r="4" fill="#eb6834" stroke="#fcfcfb" stroke-width="2"/><circle cx="832" cy="362.0" r="4" fill="#eb6834" stroke="#fcfcfb" stroke-width="2"/><circle cx="904" cy="290.0" r="4" fill="#eb6834" stroke="#fcfcfb" stroke-width="2"/><circle cx="328" cy="182.0" r="4" fill="#b8b6ae" stroke="#fcfcfb" stroke-width="2"/><circle cx="328" cy="146.0" r="4" fill="#e87ba4" stroke="#fcfcfb" stroke-width="2"/><polyline points="472,290.0 544,362.0 616,362.0 688,290.0 760,326.0 832,290.0 904,218.0" fill="none" stroke="#e87ba4" stroke-width="2" stroke-linecap="round" stroke-linejoin="round"/><circle cx="472" cy="290.0" r="4" fill="#e87ba4" stroke="#fcfcfb" stroke-width="2"/><circle cx="544" cy="362.0" r="4" fill="#e87ba4" stroke="#fcfcfb" stroke-width="2"/><circle cx="616" cy="362.0" r="4" fill="#e87ba4" stroke="#fcfcfb" stroke-width="2"/><circle cx="688" cy="290.0" r="4" fill="#e87ba4" stroke="#fcfcfb" stroke-width="2"/><circle cx="760" cy="326.0" r="4" fill="#e87ba4" stroke="#fcfcfb" stroke-width="2"/><circle cx="832" cy="290.0" r="4" fill="#e87ba4" stroke="#fcfcfb" stroke-width="2"/><circle cx="904" cy="218.0" r="4" fill="#e87ba4" stroke="#fcfcfb" stroke-width="2"/><circle cx="328" cy="290.0" r="4" fill="#898781" stroke="#fcfcfb" stroke-width="2"/><circle cx="328" cy="74.0" r="4" fill="#b8b6ae" stroke="#fcfcfb" stroke-width="2"/><polyline points="472,398.0 544,326.0 616,398.0 688,398.0 760,290.0 832,326.0 904,362.0" fill="none" stroke="#b8b6ae" stroke-width="2" stroke-linecap="round" stroke-linejoin="round"/><circle cx="472" cy="398.0" r="4" fill="#b8b6ae" stroke="#fcfcfb" stroke-width="2"/><circle cx="544" cy="326.0" r="4" fill="#b8b6ae" stroke="#fcfcfb" stroke-width="2"/><circle cx="616" cy="398.0" r="4" fill="#b8b6ae" stroke="#fcfcfb" stroke-width="2"/><circle cx="688" cy="398.0" r="4" fill="#b8b6ae" stroke="#fcfcfb" stroke-width="2"/><circle cx="760" cy="290.0" r="4" fill="#b8b6ae" stroke="#fcfcfb" stroke-width="2"/><circle cx="832" cy="326.0" r="4" fill="#b8b6ae" stroke="#fcfcfb" stroke-width="2"/><circle cx="904" cy="362.0" r="4" fill="#b8b6ae" stroke="#fcfcfb" stroke-width="2"/><polyline points="400,110.0 472,254.0 544,290.0 616,290.0 688,254.0 760,182.0 832,218.0 904,254.0" fill="none" stroke="#4a3aa7" stroke-width="2" stroke-linecap="round" stroke-linejoin="round"/><circle cx="400" cy="110.0" r="4" fill="#4a3aa7" stroke="#fcfcfb" stroke-width="2"/><circle cx="472" cy="254.0" r="4" fill="#4a3aa7" stroke="#fcfcfb" stroke-width="2"/><circle cx="544" cy="290.0" r="4" fill="#4a3aa7" stroke="#fcfcfb" stroke-width="2"/><circle cx="616" cy="290.0" r="4" fill="#4a3aa7" stroke="#fcfcfb" stroke-width="2"/><circle cx="688" cy="254.0" r="4" fill="#4a3aa7" stroke="#fcfcfb" stroke-width="2"/><circle cx="760" cy="182.0" r="4" fill="#4a3aa7" stroke="#fcfcfb" stroke-width="2"/><circle cx="832" cy="218.0" r="4" fill="#4a3aa7" stroke="#fcfcfb" stroke-width="2"/><circle cx="904" cy="254.0" r="4" fill="#4a3aa7" stroke="#fcfcfb" stroke-width="2"/><polyline points="400,182.0 472,74.0 544,146.0 616,254.0 688,218.0 760,218.0 832,254.0 904,326.0" fill="none" stroke="#e34948" stroke-width="2" stroke-linecap="round" stroke-linejoin="round"/><circle cx="400" cy="182.0" r="4" fill="#e34948" stroke="#fcfcfb" stroke-width="2"/><circle cx="472" cy="74.0" r="4" fill="#e34948" stroke="#fcfcfb" stroke-width="2"/><circle cx="544" cy="146.0" r="4" fill="#e34948" stroke="#fcfcfb" stroke-width="2"/><circle cx="616" cy="254.0" r="4" fill="#e34948" stroke="#fcfcfb" stroke-width="2"/><circle cx="688" cy="218.0" r="4" fill="#e34948" stroke="#fcfcfb" stroke-width="2"/><circle cx="760" cy="218.0" r="4" fill="#e34948" stroke="#fcfcfb" stroke-width="2"/><circle cx="832" cy="254.0" r="4" fill="#e34948" stroke="#fcfcfb" stroke-width="2"/><circle cx="904" cy="326.0" r="4" fill="#e34948" stroke="#fcfcfb" stroke-width="2"/><circle cx="400" cy="254.0" r="4" fill="#898781" stroke="#fcfcfb" stroke-width="2"/><circle cx="400" cy="398.0" r="4" fill="#b8b6ae" stroke="#fcfcfb" stroke-width="2"/><polyline points="400,362.0 472,218.0 544,254.0 616,326.0 688,326.0 760,362.0 832,398.0 904,398.0" fill="none" stroke="#898781" stroke-width="2" stroke-linecap="round" stroke-linejoin="round"/><circle cx="400" cy="362.0" r="4" fill="#898781" stroke="#fcfcfb" stroke-width="2"/><circle cx="472" cy="218.0" r="4" fill="#898781" stroke="#fcfcfb" stroke-width="2"/><circle cx="544" cy="254.0" r="4" fill="#898781" stroke="#fcfcfb" stroke-width="2"/><circle cx="616" cy="326.0" r="4" fill="#898781" stroke="#fcfcfb" stroke-width="2"/><circle cx="688" cy="326.0" r="4" fill="#898781" stroke="#fcfcfb" stroke-width="2"/><circle cx="760" cy="362.0" r="4" fill="#898781" stroke="#fcfcfb" stroke-width="2"/><circle cx="832" cy="398.0" r="4" fill="#898781" stroke="#fcfcfb" stroke-width="2"/><circle cx="904" cy="398.0" r="4" fill="#898781" stroke="#fcfcfb" stroke-width="2"/><circle cx="400" cy="326.0" r="4" fill="#b8b6ae" stroke="#fcfcfb" stroke-width="2"/><polyline points="400,74.0 472,110.0 544,110.0 616,110.0 688,74.0 760,74.0 832,74.0 904,74.0" fill="none" stroke="#2a78d6" stroke-width="2" stroke-linecap="round" stroke-linejoin="round"/><circle cx="400" cy="74.0" r="4" fill="#2a78d6" stroke="#fcfcfb" stroke-width="2"/><circle cx="472" cy="110.0" r="4" fill="#2a78d6" stroke="#fcfcfb" stroke-width="2"/><circle cx="544" cy="110.0" r="4" fill="#2a78d6" stroke="#fcfcfb" stroke-width="2"/><circle cx="616" cy="110.0" r="4" fill="#2a78d6" stroke="#fcfcfb" stroke-width="2"/><circle cx="688" cy="74.0" r="4" fill="#2a78d6" stroke="#fcfcfb" stroke-width="2"/><circle cx="760" cy="74.0" r="4" fill="#2a78d6" stroke="#fcfcfb" stroke-width="2"/><circle cx="832" cy="74.0" r="4" fill="#2a78d6" stroke="#fcfcfb" stroke-width="2"/><circle cx="904" cy="74.0" r="4" fill="#2a78d6" stroke="#fcfcfb" stroke-width="2"/><polyline points="400,290.0 472,182.0 544,182.0 616,146.0 688,110.0 760,110.0 832,110.0 904,146.0" fill="none" stroke="#eda100" stroke-width="2" stroke-linecap="round" stroke-linejoin="round"/><circle cx="400" cy="290.0" r="4" fill="#eda100" stroke="#fcfcfb" stroke-width="2"/><circle cx="472" cy="182.0" r="4" fill="#eda100" stroke="#fcfcfb" stroke-width="2"/><circle cx="544" cy="182.0" r="4" fill="#eda100" stroke="#fcfcfb" stroke-width="2"/><circle cx="616" cy="146.0" r="4" fill="#eda100" stroke="#fcfcfb" stroke-width="2"/><circle cx="688" cy="110.0" r="4" fill="#eda100" stroke="#fcfcfb" stroke-width="2"/><circle cx="760" cy="110.0" r="4" fill="#eda100" stroke="#fcfcfb" stroke-width="2"/><circle cx="832" cy="110.0" r="4" fill="#eda100" stroke="#fcfcfb" stroke-width="2"/><circle cx="904" cy="146.0" r="4" fill="#eda100" stroke="#fcfcfb" stroke-width="2"/><polyline points="400,146.0 472,326.0" fill="none" stroke="#898781" stroke-width="2" stroke-linecap="round" stroke-linejoin="round"/><circle cx="400" cy="146.0" r="4" fill="#898781" stroke="#fcfcfb" stroke-width="2"/><circle cx="472" cy="326.0" r="4" fill="#898781" stroke="#fcfcfb" stroke-width="2"/><circle cx="472" cy="362.0" r="4" fill="#b8b6ae" stroke="#fcfcfb" stroke-width="2"/><polyline points="544,218.0 616,74.0 688,182.0 760,254.0 832,146.0 904,110.0" fill="none" stroke="#1baf7a" stroke-width="2" stroke-linecap="round" stroke-linejoin="round"/><circle cx="544" cy="218.0" r="4" fill="#1baf7a" stroke="#fcfcfb" stroke-width="2"/><circle cx="616" cy="74.0" r="4" fill="#1baf7a" stroke="#fcfcfb" stroke-width="2"/><circle cx="688" cy="182.0" r="4" fill="#1baf7a" stroke="#fcfcfb" stroke-width="2"/><circle cx="760" cy="254.0" r="4" fill="#1baf7a" stroke="#fcfcfb" stroke-width="2"/><circle cx="832" cy="146.0" r="4" fill="#1baf7a" stroke="#fcfcfb" stroke-width="2"/><circle cx="904" cy="110.0" r="4" fill="#1baf7a" stroke="#fcfcfb" stroke-width="2"/><circle cx="616" cy="182.0" r="4" fill="#898781" stroke="#fcfcfb" stroke-width="2"/><text x="916" y="78.0" font-size="11" fill="#0b0b0b">mattpocock/skills</text><rect x="906" y="71.0" width="6" height="6" fill="#2a78d6"/><text x="916" y="114.0" font-size="11" fill="#0b0b0b">addyosmani/agent-skills</text><rect x="906" y="107.0" width="6" height="6" fill="#1baf7a"/><text x="916" y="150.0" font-size="11" fill="#0b0b0b">Superpowers</text><rect x="906" y="143.0" width="6" height="6" fill="#eda100"/><text x="916" y="186.0" font-size="11" fill="#0b0b0b">Hermes Agent</text><rect x="906" y="179.0" width="6" height="6" fill="#008300"/><text x="916" y="222.0" font-size="11" fill="#0b0b0b">Pi</text><rect x="906" y="215.0" width="6" height="6" fill="#e87ba4"/><text x="916" y="258.0" font-size="11" fill="#0b0b0b">anthropics/skills</text><rect x="906" y="251.0" width="6" height="6" fill="#4a3aa7"/><text x="916" y="294.0" font-size="11" fill="#0b0b0b">Codex CLI</text><rect x="906" y="287.0" width="6" height="6" fill="#eb6834"/><text x="916" y="330.0" font-size="11" fill="#0b0b0b">CodeGraph</text><rect x="906" y="323.0" width="6" height="6" fill="#e34948"/><text x="916" y="366.0" font-size="11" fill="#0b0b0b">TradingAgents</text><rect x="906" y="359.0" width="6" height="6" fill="#b8b6ae"/><text x="916" y="402.0" font-size="11" fill="#0b0b0b">academic-research-skills</text><rect x="906" y="395.0" width="6" height="6" fill="#898781"/><rect x="40" y="444" width="10" height="10" fill="#898781"/><text x="55" y="453" font-size="11" fill="#52514e">AI Edge Gallery</text><rect x="162.39999999999998" y="444" width="10" height="10" fill="#008300"/><text x="177.39999999999998" y="453" font-size="11" fill="#52514e">Hermes Agent</text><rect x="266.31999999999994" y="444" width="10" height="10" fill="#b8b6ae"/><text x="281.31999999999994" y="453" font-size="11" fill="#52514e">OpenScreen</text><rect x="357.91999999999996" y="444" width="10" height="10" fill="#898781"/><text x="372.91999999999996" y="453" font-size="11" fill="#52514e">oh-my-claudecode</text><rect x="486.4799999999999" y="444" width="10" height="10" fill="#b8b6ae"/><text x="501.4799999999999" y="453" font-size="11" fill="#52514e">oh-my-codex</text><rect x="584.2399999999999" y="444" width="10" height="10" fill="#898781"/><text x="599.2399999999999" y="453" font-size="11" fill="#52514e">Mercury Agent</text><rect x="694.3199999999999" y="444" width="10" height="10" fill="#eb6834"/><text x="709.3199999999999" y="453" font-size="11" fill="#52514e">Codex CLI</text><rect x="779.76" y="444" width="10" height="10" fill="#b8b6ae"/><text x="794.76" y="453" font-size="11" fill="#52514e">Pixelle-Video</text><rect x="889.8399999999999" y="444" width="10" height="10" fill="#e87ba4"/><text x="904.8399999999999" y="453" font-size="11" fill="#52514e">Pi</text><rect x="932.16" y="444" width="10" height="10" fill="#898781"/><text x="947.16" y="453" font-size="11" fill="#52514e">ml-intern</text><rect x="40" y="464" width="10" height="10" fill="#b8b6ae"/><text x="55" y="473" font-size="11" fill="#52514e">TradingAgents</text><rect x="150.07999999999998" y="464" width="10" height="10" fill="#4a3aa7"/><text x="165.07999999999998" y="473" font-size="11" fill="#52514e">anthropics/skills</text><rect x="284.79999999999995" y="464" width="10" height="10" fill="#e34948"/><text x="299.79999999999995" y="473" font-size="11" fill="#52514e">CodeGraph</text><rect x="370.23999999999995" y="464" width="10" height="10" fill="#898781"/><text x="385.23999999999995" y="473" font-size="11" fill="#52514e">CLI-Anything</text><rect x="474.15999999999997" y="464" width="10" height="10" fill="#b8b6ae"/><text x="489.15999999999997" y="473" font-size="11" fill="#52514e">12-factor-agents</text><rect x="602.7199999999999" y="464" width="10" height="10" fill="#898781"/><text x="617.7199999999999" y="473" font-size="11" fill="#52514e">academic-research-skills</text><rect x="780.5599999999998" y="464" width="10" height="10" fill="#b8b6ae"/><text x="795.5599999999998" y="473" font-size="11" fill="#52514e">scientific-agent-skills</text><rect x="40" y="484" width="10" height="10" fill="#2a78d6"/><text x="55" y="493" font-size="11" fill="#52514e">mattpocock/skills</text><rect x="174.71999999999997" y="484" width="10" height="10" fill="#eda100"/><text x="189.71999999999997" y="493" font-size="11" fill="#52514e">Superpowers</text><rect x="272.47999999999996" y="484" width="10" height="10" fill="#898781"/><text x="287.47999999999996" y="493" font-size="11" fill="#52514e">OpenHuman</text><rect x="357.91999999999996" y="484" width="10" height="10" fill="#b8b6ae"/><text x="372.91999999999996" y="493" font-size="11" fill="#52514e">agentmemory</text><rect x="455.67999999999995" y="484" width="10" height="10" fill="#1baf7a"/><text x="470.67999999999995" y="493" font-size="11" fill="#52514e">addyosmani/agent-skills</text><rect x="627.3599999999999" y="484" width="10" height="10" fill="#898781"/><text x="642.3599999999999" y="493" font-size="11" fill="#52514e">MiMoCode</text><text x="706.6399999999999" y="493" font-size="11" font-style="italic" fill="#52514e">灰色 = 短暂上榜项目</text><text x="40" y="516" font-size="11" fill="#52514e">榜单深度随时间扩大：2026-05-23 之前为 top 5–8，此后为 top 10。折线中断表示该周未上榜。</text></svg>
